<mxfile host="app.diagrams.net" agent="Mozilla/5.0 (Windows NT 10.0; Win64; x64) AppleWebKit/537.36 (KHTML, like Gecko) Chrome/127.0.0.0 Safari/537.36" version="24.7.17">
  <diagram name="페이지-1" id="ccHLqjF0Y9wp8YjmCFEn">
    <mxGraphModel dx="1050" dy="530" grid="1" gridSize="10" guides="1" tooltips="1" connect="1" arrows="1" fold="1" page="1" pageScale="1" pageWidth="827" pageHeight="1169" math="0" shadow="0">
      <root>
        <mxCell id="0" />
        <mxCell id="1" parent="0" />
        <mxCell id="1JcF8zKJDCClKVTQnCRo-5" value="" style="edgeStyle=orthogonalEdgeStyle;rounded=0;orthogonalLoop=1;jettySize=auto;html=1;endArrow=none;endFill=0;" edge="1" parent="1" source="1JcF8zKJDCClKVTQnCRo-1" target="1JcF8zKJDCClKVTQnCRo-4">
          <mxGeometry relative="1" as="geometry" />
        </mxCell>
        <mxCell id="1JcF8zKJDCClKVTQnCRo-9" value="" style="edgeStyle=orthogonalEdgeStyle;rounded=0;orthogonalLoop=1;jettySize=auto;html=1;endArrow=none;endFill=0;" edge="1" parent="1" source="1JcF8zKJDCClKVTQnCRo-1" target="1JcF8zKJDCClKVTQnCRo-8">
          <mxGeometry relative="1" as="geometry" />
        </mxCell>
        <mxCell id="1JcF8zKJDCClKVTQnCRo-11" value="" style="edgeStyle=orthogonalEdgeStyle;rounded=0;orthogonalLoop=1;jettySize=auto;html=1;endArrow=none;endFill=0;" edge="1" parent="1" source="1JcF8zKJDCClKVTQnCRo-1" target="1JcF8zKJDCClKVTQnCRo-10">
          <mxGeometry relative="1" as="geometry" />
        </mxCell>
        <mxCell id="1JcF8zKJDCClKVTQnCRo-1" value="greeter" style="rounded=1;whiteSpace=wrap;html=1;" vertex="1" parent="1">
          <mxGeometry x="350" y="250" width="120" height="60" as="geometry" />
        </mxCell>
        <mxCell id="1JcF8zKJDCClKVTQnCRo-7" value="" style="edgeStyle=orthogonalEdgeStyle;rounded=0;orthogonalLoop=1;jettySize=auto;html=1;endArrow=none;endFill=0;" edge="1" parent="1" source="1JcF8zKJDCClKVTQnCRo-4" target="1JcF8zKJDCClKVTQnCRo-6">
          <mxGeometry relative="1" as="geometry" />
        </mxCell>
        <mxCell id="1JcF8zKJDCClKVTQnCRo-19" style="edgeStyle=orthogonalEdgeStyle;rounded=0;orthogonalLoop=1;jettySize=auto;html=1;endArrow=none;endFill=0;" edge="1" parent="1" source="1JcF8zKJDCClKVTQnCRo-4" target="1JcF8zKJDCClKVTQnCRo-14">
          <mxGeometry relative="1" as="geometry" />
        </mxCell>
        <mxCell id="1JcF8zKJDCClKVTQnCRo-4" value="Recipe Database Manager" style="rounded=1;whiteSpace=wrap;html=1;" vertex="1" parent="1">
          <mxGeometry x="350" y="390" width="120" height="60" as="geometry" />
        </mxCell>
        <mxCell id="1JcF8zKJDCClKVTQnCRo-21" style="edgeStyle=orthogonalEdgeStyle;rounded=0;orthogonalLoop=1;jettySize=auto;html=1;strokeColor=default;endArrow=none;endFill=0;" edge="1" parent="1" source="1JcF8zKJDCClKVTQnCRo-6">
          <mxGeometry relative="1" as="geometry">
            <mxPoint x="1190" y="560" as="targetPoint" />
          </mxGeometry>
        </mxCell>
        <mxCell id="1JcF8zKJDCClKVTQnCRo-6" value="Recipe" style="rounded=1;whiteSpace=wrap;html=1;" vertex="1" parent="1">
          <mxGeometry x="350" y="530" width="120" height="60" as="geometry" />
        </mxCell>
        <mxCell id="1JcF8zKJDCClKVTQnCRo-22" style="edgeStyle=orthogonalEdgeStyle;rounded=0;orthogonalLoop=1;jettySize=auto;html=1;entryX=0;entryY=0.75;entryDx=0;entryDy=0;endArrow=none;endFill=0;" edge="1" parent="1">
          <mxGeometry relative="1" as="geometry">
            <mxPoint x="350" y="565" as="targetPoint" />
            <mxPoint x="210" y="300" as="sourcePoint" />
            <Array as="points">
              <mxPoint x="210" y="565" />
            </Array>
          </mxGeometry>
        </mxCell>
        <mxCell id="1JcF8zKJDCClKVTQnCRo-8" value="Grocery List" style="rounded=1;whiteSpace=wrap;html=1;" vertex="1" parent="1">
          <mxGeometry x="150" y="250" width="120" height="60" as="geometry" />
        </mxCell>
        <mxCell id="1JcF8zKJDCClKVTQnCRo-13" value="" style="edgeStyle=orthogonalEdgeStyle;rounded=0;orthogonalLoop=1;jettySize=auto;html=1;endArrow=none;endFill=0;" edge="1" parent="1" source="1JcF8zKJDCClKVTQnCRo-10" target="1JcF8zKJDCClKVTQnCRo-12">
          <mxGeometry relative="1" as="geometry" />
        </mxCell>
        <mxCell id="1JcF8zKJDCClKVTQnCRo-10" value="Meal Manager" style="rounded=1;whiteSpace=wrap;html=1;" vertex="1" parent="1">
          <mxGeometry x="550" y="250" width="120" height="60" as="geometry" />
        </mxCell>
        <mxCell id="1JcF8zKJDCClKVTQnCRo-15" value="" style="rounded=0;orthogonalLoop=1;jettySize=auto;html=1;endArrow=none;endFill=0;" edge="1" parent="1" source="1JcF8zKJDCClKVTQnCRo-12" target="1JcF8zKJDCClKVTQnCRo-14">
          <mxGeometry relative="1" as="geometry" />
        </mxCell>
        <mxCell id="1JcF8zKJDCClKVTQnCRo-12" value="Date" style="rounded=1;whiteSpace=wrap;html=1;" vertex="1" parent="1">
          <mxGeometry x="750" y="250" width="120" height="60" as="geometry" />
        </mxCell>
        <mxCell id="1JcF8zKJDCClKVTQnCRo-20" style="edgeStyle=orthogonalEdgeStyle;rounded=0;orthogonalLoop=1;jettySize=auto;html=1;endArrow=none;endFill=0;" edge="1" parent="1" source="1JcF8zKJDCClKVTQnCRo-14">
          <mxGeometry relative="1" as="geometry">
            <mxPoint x="1191.60009765625" y="560" as="targetPoint" />
          </mxGeometry>
        </mxCell>
        <mxCell id="1JcF8zKJDCClKVTQnCRo-14" value="Meal" style="rounded=1;whiteSpace=wrap;html=1;" vertex="1" parent="1">
          <mxGeometry x="950" y="250" width="120" height="60" as="geometry" />
        </mxCell>
      </root>
    </mxGraphModel>
  </diagram>
</mxfile>
